<svg width="94" height="56" viewBox="0 0 94 56" fill="none" xmlns="http://www.w3.org/2000/svg">
<path d="M26.496 54.524C26.16 54.9253 25.7213 55.126 25.18 55.126C24.844 55.126 24.578 55.0513 24.382 54.902C24.1953 54.7433 24.032 54.4773 23.892 54.104L23.486 52.872C23.3927 52.62 23.3087 52.438 23.234 52.326C23.1593 52.2047 23.0427 52.1113 22.884 52.046L22.646 51.92L22.674 51.78C22.7487 51.7893 22.8467 51.794 22.968 51.794C23.08 51.794 23.1593 51.7893 23.206 51.78C23.5513 51.724 23.822 51.5653 24.018 51.304C24.214 51.0427 24.312 50.7067 24.312 50.296C24.312 49.8013 24.1953 49.4093 23.962 49.12C23.7287 48.8213 23.4207 48.672 23.038 48.672C22.618 48.672 22.408 48.868 22.408 49.26V53.166C22.408 53.53 22.436 53.824 22.492 54.048C22.5573 54.2627 22.6693 54.4773 22.828 54.692L22.94 54.86L22.828 55H20.392L20.294 54.748C20.5273 54.6827 20.6953 54.622 20.798 54.566C20.9007 54.5007 20.9707 54.4167 21.008 54.314C21.0453 54.2113 21.064 54.0527 21.064 53.838V50.114C21.064 49.7873 21.036 49.54 20.98 49.372C20.9333 49.1947 20.8167 49.05 20.63 48.938L20.462 48.84L20.518 48.658C20.8073 48.5647 21.176 48.49 21.624 48.434C22.0813 48.3687 22.4873 48.336 22.842 48.336C23.7287 48.336 24.4287 48.5133 24.942 48.868C25.4553 49.2227 25.712 49.708 25.712 50.324C25.712 50.7533 25.572 51.136 25.292 51.472C25.0213 51.7987 24.6713 52.018 24.242 52.13C24.578 52.2793 24.8113 52.5313 24.942 52.886L25.432 54.258C25.5067 54.482 25.6513 54.594 25.866 54.594C26.034 54.594 26.2067 54.5193 26.384 54.37L26.496 54.524ZM30.6987 54.664C30.9694 54.664 31.2074 54.6173 31.4127 54.524C31.6181 54.4213 31.8187 54.2533 32.0147 54.02L32.1827 54.146C31.9681 54.454 31.6927 54.6967 31.3567 54.874C31.0301 55.042 30.6707 55.126 30.2787 55.126C29.8494 55.126 29.4621 55.0233 29.1167 54.818C28.7807 54.6127 28.5147 54.3327 28.3187 53.978C28.1227 53.614 28.0247 53.2033 28.0247 52.746C28.0247 52.018 28.2441 51.4393 28.6827 51.01C29.1307 50.5713 29.7234 50.352 30.4607 50.352C30.9834 50.352 31.4081 50.478 31.7347 50.73C32.0707 50.9727 32.2387 51.29 32.2387 51.682C32.2387 52.13 32.0474 52.4893 31.6647 52.76C31.2914 53.0213 30.7781 53.152 30.1247 53.152C29.8634 53.152 29.6254 53.1333 29.4107 53.096C29.4574 53.5813 29.5974 53.964 29.8307 54.244C30.0641 54.524 30.3534 54.664 30.6987 54.664ZM30.3067 50.688C30.0174 50.688 29.7887 50.8653 29.6207 51.22C29.4621 51.5653 29.3827 52.0507 29.3827 52.676V52.9C29.4854 52.9 29.6114 52.8907 29.7607 52.872C30.1527 52.8253 30.4514 52.6993 30.6567 52.494C30.8714 52.2793 30.9787 51.9993 30.9787 51.654C30.9787 51.374 30.9134 51.1453 30.7827 50.968C30.6614 50.7813 30.5027 50.688 30.3067 50.688ZM36.3789 55.126C35.9309 55.126 35.5809 54.9813 35.3289 54.692C35.0862 54.3933 34.9182 53.9173 34.8249 53.264L34.5309 51.248C34.5216 51.1733 34.5029 51.122 34.4749 51.094C34.4469 51.066 34.4049 51.052 34.3489 51.052H33.9709L33.9289 50.898C34.1156 50.73 34.3396 50.5993 34.6009 50.506C34.8622 50.4033 35.1189 50.352 35.3709 50.352C35.5109 50.352 35.6089 50.394 35.6649 50.478C35.7302 50.562 35.7816 50.7253 35.8189 50.968L36.1829 53.488C36.2482 53.9453 36.3229 54.258 36.4069 54.426C36.4909 54.594 36.6169 54.678 36.7849 54.678C37.0462 54.678 37.2516 54.5193 37.4009 54.202C37.5596 53.8753 37.6389 53.446 37.6389 52.914C37.6389 52.3727 37.5689 51.8173 37.4289 51.248C37.4102 51.1733 37.3916 51.122 37.3729 51.094C37.3542 51.066 37.3122 51.052 37.2469 51.052H36.8829L36.8409 50.898C37.0182 50.73 37.2376 50.5993 37.4989 50.506C37.7602 50.4033 38.0216 50.352 38.2829 50.352C38.4136 50.352 38.5116 50.3987 38.5769 50.492C38.6422 50.576 38.6889 50.7347 38.7169 50.968L39.0669 53.418C39.1416 53.922 39.2209 54.258 39.3049 54.426C39.3982 54.594 39.5102 54.678 39.6409 54.678C39.8929 54.678 40.0936 54.4913 40.2429 54.118C40.4016 53.7353 40.4809 53.2407 40.4809 52.634C40.4809 52.2233 40.4389 51.8687 40.3549 51.57C40.2802 51.262 40.1542 50.9913 39.9769 50.758L39.8649 50.604L39.9629 50.492L41.1389 50.352C41.1669 50.716 41.1809 51.038 41.1809 51.318C41.1809 52.5127 41.0082 53.446 40.6629 54.118C40.3269 54.79 39.8416 55.126 39.2069 55.126C38.8242 55.126 38.5349 55.028 38.3389 54.832C38.1429 54.636 37.9796 54.2767 37.8489 53.754C37.6622 54.6687 37.1722 55.126 36.3789 55.126ZM45.0539 51.906C44.8579 52.018 44.6245 52.074 44.3539 52.074C44.1579 52.074 44.0039 52.018 43.8919 51.906C43.7799 51.7847 43.7239 51.6167 43.7239 51.402C43.7239 51.0847 43.8779 50.8327 44.1859 50.646C44.5032 50.45 44.9139 50.352 45.4179 50.352C46.0152 50.352 46.4819 50.4827 46.8179 50.744C47.1632 51.0053 47.3359 51.36 47.3359 51.808V54.23C47.3359 54.4913 47.4292 54.622 47.6159 54.622C47.7932 54.622 47.9659 54.552 48.1339 54.412L48.2459 54.552C47.9005 54.9347 47.4899 55.126 47.0139 55.126C46.7339 55.126 46.5192 55.056 46.3699 54.916C46.2299 54.776 46.1459 54.5567 46.1179 54.258H46.0619C45.9125 54.5287 45.7119 54.7433 45.4599 54.902C45.2172 55.0513 44.9372 55.126 44.6199 55.126C44.2652 55.126 43.9805 55.0187 43.7659 54.804C43.5512 54.58 43.4439 54.2907 43.4439 53.936C43.4439 53.5347 43.6352 53.2173 44.0179 52.984C44.4005 52.7507 44.9185 52.634 45.5719 52.634C45.6932 52.634 45.8659 52.6433 46.0899 52.662V51.962C46.0899 51.5047 46.0339 51.178 45.9219 50.982C45.8099 50.7767 45.6279 50.674 45.3759 50.674C45.1985 50.674 45.0585 50.73 44.9559 50.842C44.8532 50.954 44.8019 51.0987 44.8019 51.276C44.8019 51.556 44.8859 51.766 45.0539 51.906ZM45.2639 54.426C45.8145 54.426 46.0899 53.9267 46.0899 52.928C45.6232 52.928 45.2732 53.0073 45.0399 53.166C44.8065 53.3153 44.6899 53.53 44.6899 53.81C44.6899 53.9967 44.7412 54.146 44.8439 54.258C44.9465 54.37 45.0865 54.426 45.2639 54.426ZM51.6232 54.202C51.6232 54.482 51.7118 54.622 51.8892 54.622C52.0665 54.622 52.2392 54.552 52.4072 54.412L52.5192 54.552C52.1925 54.9347 51.7865 55.126 51.3012 55.126C50.9745 55.126 50.7365 55.0513 50.5872 54.902C50.4378 54.7433 50.3632 54.496 50.3632 54.16V49.022C50.3632 48.8913 50.3025 48.826 50.1812 48.826H49.7332L49.6912 48.686C49.8685 48.518 50.0972 48.3873 50.3772 48.294C50.6665 48.1913 50.9512 48.14 51.2312 48.14C51.3525 48.14 51.4458 48.168 51.5112 48.224C51.5858 48.2707 51.6232 48.3407 51.6232 48.434V54.202ZM55.6143 51.304C55.6143 51.5373 55.7029 51.7287 55.8803 51.878C56.0669 52.018 56.3469 52.1767 56.7203 52.354C57.0283 52.5033 57.2663 52.634 57.4343 52.746C57.6023 52.8487 57.7469 52.9887 57.8683 53.166C57.9989 53.3433 58.0643 53.5533 58.0643 53.796C58.0643 54.1973 57.8729 54.5193 57.4903 54.762C57.1169 55.0047 56.6129 55.126 55.9783 55.126C55.5023 55.126 55.1103 55.042 54.8023 54.874C54.4943 54.6967 54.3403 54.468 54.3403 54.188C54.3403 54.0013 54.4103 53.8473 54.5503 53.726C54.6903 53.5953 54.8629 53.53 55.0683 53.53C55.2269 53.53 55.3856 53.5627 55.5443 53.628C55.3856 53.7493 55.3063 53.9453 55.3063 54.216C55.3063 54.4027 55.3716 54.5473 55.5023 54.65C55.6329 54.7527 55.7916 54.804 55.9783 54.804C56.1929 54.804 56.3749 54.748 56.5243 54.636C56.6829 54.524 56.7623 54.3653 56.7623 54.16C56.7623 53.964 56.6829 53.81 56.5243 53.698C56.3749 53.5767 56.1369 53.4367 55.8103 53.278C55.5116 53.138 55.2689 53.012 55.0823 52.9C54.9049 52.7787 54.7509 52.62 54.6203 52.424C54.4896 52.228 54.4243 51.99 54.4243 51.71C54.4243 51.29 54.6016 50.9587 54.9563 50.716C55.3109 50.4733 55.7589 50.352 56.3003 50.352C56.7763 50.352 57.1636 50.4407 57.4623 50.618C57.7703 50.7953 57.9243 51.024 57.9243 51.304C57.9243 51.5187 57.8589 51.6773 57.7283 51.78C57.5976 51.8827 57.4296 51.934 57.2243 51.934C57.0283 51.934 56.8556 51.892 56.7063 51.808C56.8743 51.6493 56.9583 51.4487 56.9583 51.206C56.9583 51.0473 56.8976 50.9213 56.7763 50.828C56.6549 50.7253 56.4963 50.674 56.3003 50.674C56.0856 50.674 55.9176 50.7347 55.7963 50.856C55.6749 50.9773 55.6143 51.1267 55.6143 51.304ZM61.8183 51.906C61.6223 52.018 61.389 52.074 61.1183 52.074C60.9223 52.074 60.7683 52.018 60.6563 51.906C60.5443 51.7847 60.4883 51.6167 60.4883 51.402C60.4883 51.0847 60.6423 50.8327 60.9503 50.646C61.2677 50.45 61.6783 50.352 62.1823 50.352C62.7797 50.352 63.2463 50.4827 63.5823 50.744C63.9277 51.0053 64.1003 51.36 64.1003 51.808V54.23C64.1003 54.4913 64.1937 54.622 64.3803 54.622C64.5577 54.622 64.7303 54.552 64.8983 54.412L65.0103 54.552C64.665 54.9347 64.2543 55.126 63.7783 55.126C63.4983 55.126 63.2837 55.056 63.1343 54.916C62.9943 54.776 62.9103 54.5567 62.8823 54.258H62.8263C62.677 54.5287 62.4763 54.7433 62.2243 54.902C61.9817 55.0513 61.7017 55.126 61.3843 55.126C61.0297 55.126 60.745 55.0187 60.5303 54.804C60.3157 54.58 60.2083 54.2907 60.2083 53.936C60.2083 53.5347 60.3997 53.2173 60.7823 52.984C61.165 52.7507 61.683 52.634 62.3363 52.634C62.4577 52.634 62.6303 52.6433 62.8543 52.662V51.962C62.8543 51.5047 62.7983 51.178 62.6863 50.982C62.5743 50.7767 62.3923 50.674 62.1403 50.674C61.963 50.674 61.823 50.73 61.7203 50.842C61.6177 50.954 61.5663 51.0987 61.5663 51.276C61.5663 51.556 61.6503 51.766 61.8183 51.906ZM62.0283 54.426C62.579 54.426 62.8543 53.9267 62.8543 52.928C62.3877 52.928 62.0377 53.0073 61.8043 53.166C61.571 53.3153 61.4543 53.53 61.4543 53.81C61.4543 53.9967 61.5057 54.146 61.6083 54.258C61.711 54.37 61.851 54.426 62.0283 54.426ZM69.7736 50.352C70.0723 50.352 70.3149 50.4407 70.5016 50.618C70.6883 50.786 70.7816 51.0053 70.7816 51.276C70.7816 51.528 70.7069 51.7333 70.5576 51.892C70.4083 52.0413 70.2123 52.116 69.9696 52.116C69.7829 52.116 69.6103 52.0787 69.4516 52.004C69.6196 51.864 69.7036 51.654 69.7036 51.374C69.7036 51.2433 69.6756 51.1407 69.6196 51.066C69.5636 50.9913 69.4889 50.954 69.3956 50.954C69.1716 50.954 68.9849 51.1827 68.8356 51.64C68.6863 52.088 68.6116 52.648 68.6116 53.32C68.6116 53.6653 68.6303 53.9407 68.6676 54.146C68.7143 54.3513 68.7889 54.5427 68.8916 54.72L69.0036 54.86L68.8916 55H66.8616L66.7776 54.762L66.9736 54.72C67.1229 54.6827 67.2209 54.6267 67.2676 54.552C67.3143 54.468 67.3376 54.3093 67.3376 54.076V51.346C67.3376 51.1687 67.2769 51.08 67.1556 51.08H66.7216L66.6656 50.926C66.8429 50.7673 67.0623 50.6367 67.3236 50.534C67.5943 50.4313 67.8603 50.38 68.1216 50.38C68.2429 50.38 68.3409 50.408 68.4156 50.464C68.4903 50.52 68.5276 50.5947 68.5276 50.688V51.71H68.5696C68.7656 50.8047 69.1669 50.352 69.7736 50.352Z" fill="url(#paint0_linear_175_22)"/>
<circle cx="23" cy="23" r="22.5" stroke="black"/>
<circle cx="70" cy="24" r="24" fill="#101010"/>
<defs>
<linearGradient id="paint0_linear_175_22" x1="21.6983" y1="51.5484" x2="71.1312" y2="53.1817" gradientUnits="userSpaceOnUse">
<stop/>
<stop offset="0.615768" stop-color="#197834"/>
<stop offset="1" stop-color="#29C254"/>
</linearGradient>
</defs>
</svg>
